HIERARCHY
ROOT hip
{
	OFFSET 0.000000 0.000000 0.000000 
	CHANNELS 6 Xposition Yposition Zposition Xrotation Zrotation Yrotation
	JOINT abdomen
	{
		OFFSET 0.000000 3.402643 0.000000 
		CHANNELS 3 Xrotation Zrotation Yrotation
		JOINT chest
		{
			OFFSET 0.000000 8.438565 -0.680529 
			CHANNELS 3 Xrotation Zrotation Yrotation
			JOINT neck
			{
				OFFSET 0.000000 10.207942 -0.272212 
				CHANNELS 3 Xrotation Zrotation Yrotation
				JOINT head
				{
					OFFSET 0.000000 3.130431 0.000000 
					CHANNELS 3 Xrotation Zrotation Yrotation
					End Site
					{
						OFFSET 0.000000 3.130435 0.000000 
					}
				}
			}
			JOINT lCollar
			{
				OFFSET 3.470700 6.669187 -0.816635 
				CHANNELS 3 Yrotation Zrotation Xrotation
				JOINT lShldr
				{
					OFFSET 3.198488 0.000000 0.000000 
					CHANNELS 3 Zrotation Yrotation Xrotation
					JOINT lForeArm
					{
						OFFSET 10.139888 0.000000 0.000000 
						CHANNELS 3 Yrotation Zrotation Xrotation
						JOINT lHand
						{
							OFFSET 8.370511 0.000000 0.000000 
							CHANNELS 3 Zrotation Yrotation Xrotation
							End Site
							{
								OFFSET 4.083176 0.000000 0.000000 
							}
						}
					}
				}
			}
			JOINT rCollar
			{
				OFFSET -3.470700 6.669187 -0.816635 
				CHANNELS 3 Yrotation Zrotation Xrotation
				JOINT rShldr
				{
					OFFSET -3.198488 0.000000 0.000000 
					CHANNELS 3 Zrotation Yrotation Xrotation
					JOINT rForeArm
					{
						OFFSET -10.139888 0.000000 0.000000 
						CHANNELS 3 Yrotation Zrotation Xrotation
						JOINT rHand
						{
							OFFSET -8.370511 0.000000 0.000000 
							CHANNELS 3 Zrotation Yrotation Xrotation
							End Site
							{
								OFFSET -4.083176 0.000000 0.000000 
							}
						}
					}
				}
			}
		}
	}
	JOINT lThigh
	{
		OFFSET 5.308129 -1.633274 1.361059 
		CHANNELS 3 Xrotation Zrotation Yrotation
		JOINT lShin
		{
			OFFSET -2.041588 -20.007561 0.000000 
			CHANNELS 3 Xrotation Zrotation Yrotation
			JOINT lFoot
			{
				OFFSET 0.000000 -19.190928 -1.224953 
				CHANNELS 3 Xrotation Yrotation Zrotation
				End Site
				{
					OFFSET 0.000000 -2.449906 4.627600 
				}
			}
		}
	}
	JOINT rThigh
	{
		OFFSET -5.308129 -1.633274 1.361059 
		CHANNELS 3 Xrotation Zrotation Yrotation
		JOINT rShin
		{
			OFFSET 2.041588 -20.007561 0.000000 
			CHANNELS 3 Xrotation Zrotation Yrotation
			JOINT rFoot
			{
				OFFSET 0.000000 -19.190928 -1.224953 
				CHANNELS 3 Xrotation Yrotation Zrotation
				End Site
				{
					OFFSET 0.000000 -2.449906 4.627600 
				}
			}
		}
	}
}
MOTION
Frames: 13
Frame Time: 0.016667
0.323407 54.039368 -2.491320 -6.571742 3.333517 3.531910 25.719433 -1.703187 -0.592717 -0.870580 0.663968 -1.464892 -9.297942 0.967033 -0.136429 8.146986 -2.968629 0.517895 -15.637841 -9.764776 -0.506598 -63.590031 17.235247 -23.506464 -30.272198 -5.000000 26.640648 -18.979710 -0.089044 27.192547 0.113054 11.042311 -0.576147 61.764076 -6.455615 -9.982695 22.914957 5.000000 30.944910 21.271982 -15.830674 -2.481760 14.272315 6.540742 -0.772457 0.584473 -4.328301 -0.171073 -8.458216 5.430826 -4.787949 16.927000 -8.472068 1.991368 -1.208340 3.688657 0.053946 -7.245680 -12.998098 4.889217 
0.323407 54.039368 -2.491320 -6.571742 3.333517 3.531910 25.719433 -1.703187 -0.592717 -0.870580 0.663968 -1.464892 -9.297942 0.967033 -0.136429 8.146986 -2.968629 0.517895 -15.637841 -9.764776 -0.506598 -63.590031 17.235247 -23.506464 -30.272198 -5.000000 26.640648 -18.979710 -0.089044 27.192547 0.113054 11.042311 -0.576147 61.764076 -6.455615 -9.982695 22.914957 5.000000 30.944910 21.271982 -15.830674 -2.481760 14.272315 6.540742 -0.772457 0.584473 -4.328301 -0.171073 -8.458216 5.430826 -4.787949 16.927000 -8.472068 1.991368 -1.208340 3.688657 0.053946 -7.245680 -12.998098 4.889217 
0.323406 54.039368 -2.491321 -6.571742 3.333517 3.531910 25.719433 -1.703187 -0.592717 -0.870580 0.663968 -1.464892 -9.297942 0.967033 -0.136429 8.146986 -2.968629 0.517895 -15.637841 -9.764776 -0.506598 -63.590031 17.235247 -23.506464 -30.272198 -5.000000 26.640648 -18.979710 -0.089044 27.192547 0.113054 11.042311 -0.576147 61.764076 -6.455615 -9.982695 22.914957 5.000000 30.944910 21.271982 -15.830674 -2.481760 14.272315 6.540743 -0.772457 0.584473 -4.328301 -0.171073 -8.458218 5.430824 -4.787950 16.927000 -8.472068 1.991368 -1.208340 3.688657 0.053946 -7.245682 -12.998098 4.889217 
0.323406 54.039368 -2.491323 -6.571742 3.333517 3.531910 25.719433 -1.703187 -0.592717 -0.870580 0.663968 -1.464892 -9.297942 0.967033 -0.136429 8.146986 -2.968629 0.517895 -15.637841 -9.764776 -0.506598 -63.590031 17.235247 -23.506464 -30.272198 -5.000000 26.640648 -18.979710 -0.089044 27.192547 0.113054 11.042311 -0.576147 61.764076 -6.455615 -9.982695 22.914957 5.000000 30.944910 21.271982 -15.830674 -2.481760 14.272315 6.540743 -0.772457 0.584473 -4.328301 -0.171073 -8.458218 5.430824 -4.787950 16.927000 -8.472068 1.991368 -1.208340 3.688657 0.053946 -7.245682 -12.998098 4.889217 
0.322839 54.039368 -2.492658 -6.571742 3.333517 3.531910 25.719433 -1.703187 -0.592717 -0.860650 0.654204 -1.464892 -9.288177 0.967033 -0.136429 8.147076 -2.958863 0.517896 -15.649225 -9.762142 -0.515865 -63.590031 17.235247 -23.506464 -30.262980 -5.000000 26.643517 -18.975454 -0.077560 27.198933 0.095530 11.052048 -0.586236 61.754398 -6.457308 -9.981596 22.906219 5.000000 30.947412 21.266819 -15.837759 -2.461584 14.269566 6.549018 -0.750666 0.594771 -4.327139 -0.191347 -8.463038 5.424096 -4.812841 16.914024 -8.475540 2.001613 -1.187726 3.685068 0.055426 -7.240123 -12.990412 4.892078 
0.320023 54.039368 -2.499320 -6.574643 3.314126 3.502095 25.719296 -1.698253 -0.579454 -0.850550 0.654209 -1.425832 -9.268741 1.005656 -0.142271 8.186402 -2.929568 0.517900 -15.697873 -9.742629 -0.514857 -63.618164 17.223560 -23.515142 -30.228966 -5.000000 26.643847 -18.949713 -0.039278 27.215210 0.017916 11.100821 -0.588757 61.737526 -6.457350 -10.014363 22.833656 5.000000 30.973259 21.273197 -15.894514 -2.426000 14.275326 6.561279 -0.739169 0.575683 -4.319893 -0.189964 -8.427204 5.458761 -4.787486 16.903971 -8.446774 2.047546 -1.170544 3.680301 0.056917 -7.243966 -13.013937 4.892447 
0.317201 54.039368 -2.505983 -6.577525 3.294734 3.472846 25.718891 -1.697180 -0.557226 -0.830529 0.644450 -1.377005 -9.239516 1.034624 -0.146654 8.225731 -2.900272 0.517903 -15.746523 -9.723116 -0.513849 -63.638054 17.228855 -23.525190 -30.207041 -5.000000 26.633316 -18.923944 -0.004178 27.222286 -0.059798 11.139843 -0.590774 61.710999 -6.459118 -10.047131 22.761127 5.000000 31.001842 21.276506 -15.945746 -2.375453 14.305737 6.571343 -0.678285 0.566192 -4.321673 -0.228239 -8.431389 5.471874 -4.769907 16.864202 -8.436878 2.069494 -1.140988 3.669392 0.069042 -7.239839 -13.034619 4.903932 
0.313246 54.040440 -2.515839 -6.587883 3.284986 3.472845 25.729080 -1.668410 -0.577372 -0.840032 0.634688 -1.367241 -9.122404 1.063591 -0.151036 8.281258 -2.910009 0.576420 -15.793829 -9.735519 -0.505088 -63.647125 17.259319 -23.566507 -30.176517 -5.000000 26.649891 -18.863546 0.043594 27.251442 -0.088476 11.198360 -0.593798 61.688553 -6.509818 -10.107692 22.624462 5.000000 30.940094 21.424662 -15.735245 -2.162688 14.285765 6.591222 -0.684079 0.574934 -4.290813 -0.219623 -8.385492 5.418890 -4.860883 16.848797 -8.423389 2.071504 -1.120385 3.675421 0.060484 -7.271548 -13.013228 4.911151 
0.309009 54.041786 -2.526497 -6.598834 3.265491 3.472843 25.749187 -1.630237 -0.593471 -0.849644 0.624923 -1.367241 -8.975813 1.094019 -0.145764 8.335545 -2.939261 0.654939 -15.832978 -9.745271 -0.505591 -63.652813 17.306711 -23.633448 -30.143131 -5.000000 26.677603 -18.798798 0.099602 27.277887 -0.097619 11.256874 -0.598728 61.657326 -6.566928 -10.176757 22.469252 5.000000 30.856483 21.619911 -15.455669 -1.923717 14.282242 6.599164 -0.682103 0.585174 -4.269824 -0.230393 -8.378835 5.443818 -4.882092 16.838459 -8.402953 2.035976 -1.089632 3.663679 0.043341 -7.273057 -12.969666 4.942120 
0.305318 54.042595 -2.536626 -6.618958 3.255744 3.472842 25.759132 -1.608262 -0.595141 -0.868972 0.605393 -1.376903 -8.868491 1.132641 -0.151606 8.412552 -2.949015 0.674443 -15.883510 -9.752352 -0.515352 -63.674446 17.350668 -23.690500 -30.133917 -5.000000 26.680460 -18.781605 0.142258 27.294306 -0.136161 11.305641 -0.601255 61.613922 -6.620543 -10.214321 22.347866 5.000000 30.823854 21.754297 -15.253161 -1.798597 14.278712 6.607100 -0.680125 0.575568 -4.241448 -0.220272 -8.369422 5.392966 -4.926737 16.834612 -8.386964 2.050256 -1.062653 3.671284 0.035407 -7.297461 -12.982474 4.954169 
0.302452 54.042595 -2.545964 -6.629315 3.245996 3.472840 25.787926 -1.600265 -0.560853 -0.888294 0.585862 -1.386671 -8.800263 1.180920 -0.158910 8.512937 -2.929513 0.625681 -15.951688 -9.732835 -0.514342 -63.713993 17.395481 -23.749159 -30.139650 -5.000000 26.661322 -18.816311 0.193855 27.325523 -0.194231 11.354413 -0.603782 61.568882 -6.656353 -10.238237 22.251125 5.000000 30.909140 21.789700 -15.163855 -1.844431 14.273499 6.618805 -0.678357 0.605546 -4.227480 -0.233130 -8.405805 5.404394 -4.910151 16.821674 -8.366208 2.074101 -1.033600 3.679259 0.027479 -7.304771 -13.000405 4.944667 
0.299581 54.042595 -2.555302 -6.650032 3.226500 3.472837 25.807070 -1.592443 -0.526130 -0.907546 0.556566 -1.406206 -8.741806 1.229199 -0.166213 8.613289 -2.910009 0.576420 -16.008583 -9.725767 -0.504584 -63.753548 17.440233 -23.807882 -30.142517 -5.000000 26.653330 -18.855253 0.237191 27.359509 -0.254372 11.393386 -0.594300 61.523003 -6.687558 -10.253550 22.157074 5.000000 30.985748 21.825243 -15.083556 -1.891323 14.258682 6.626935 -0.685928 0.614269 -4.206218 -0.213892 -8.407737 5.339738 -4.918822 16.802013 -8.336538 2.100303 -1.003878 3.677335 0.029587 -7.316320 -13.067714 4.934544 
0.298129 54.042595 -2.560639 -6.649365 3.255810 3.453342 25.817139 -1.594788 -0.548025 -0.878408 0.566330 -1.406204 -8.771048 1.209887 -0.163292 8.662824 -2.939314 0.556910 -15.961453 -9.732833 -0.514342 -63.742722 17.409258 -23.800632 -30.149479 -5.000000 26.682735 -18.764591 0.227078 27.299421 -0.281490 11.412940 -0.606813 61.494057 -6.675616 -10.259474 22.147560 5.000000 31.049572 21.817532 -15.069965 -1.977443 14.267213 6.610801 -0.660339 0.614904 -4.186135 -0.194630 -8.401462 5.242403 -4.953092 16.790155 -8.384205 2.099785 -0.983512 3.693468 0.050060 -7.332033 -13.035884 4.916629 
